<svg width="214" height="41" viewBox="0 0 214 41" fill="none" xmlns="http://www.w3.org/2000/svg">
<rect y="1.5" width="38" height="38" rx="6" fill="#D7A3E5"/>
<path d="M9.40312 24.7713C8.92765 24.9645 8.42086 24.4096 8.69087 23.9731C11.9447 18.7139 15.1867 13.4475 18.4517 8.19399C18.6477 7.87851 19.1072 7.87956 19.3019 8.19587C22.3196 13.0973 25.3383 17.9975 28.3472 22.9033C28.6023 23.3191 28.1645 23.8334 27.7055 23.6685C26.0393 23.07 24.3137 22.6436 22.56 22.3934C22.4064 22.3715 22.2708 22.2811 22.1934 22.1467C21.2199 20.4562 20.2734 18.7497 19.3204 17.0485C19.1332 16.7142 18.6549 16.7069 18.4567 17.0348C17.4816 18.6485 16.5011 20.2593 15.5224 21.8706C15.3006 22.2357 15.6106 22.6994 16.0355 22.6549C20.0751 22.232 24.2873 23.1352 27.6583 25.4358C29.7719 26.7756 31.5374 28.6515 32.7479 30.8405C32.9263 31.1631 32.6863 31.5482 32.3176 31.5485C30.353 31.5501 28.3883 31.5512 26.4237 31.5484C26.2061 31.5481 26.0146 31.4066 25.9429 31.2012C24.9158 28.2591 22.7731 25.6206 19.8283 24.4658C16.485 23.1289 12.706 23.4297 9.40312 24.7713Z" fill="black"/>
<path d="M11.5903 26.0102C14.5303 25.0662 17.8643 25.0562 20.6883 26.3962C21.9083 26.9642 23.0403 27.8502 23.6103 29.1002C21.6143 27.8622 19.1283 27.3442 16.8343 27.9562C14.7363 28.3702 12.9703 29.7882 11.7543 31.5022C9.41433 31.4942 7.07633 31.5102 4.73633 31.4942C6.14433 28.8362 8.73033 26.8782 11.5903 26.0102Z" fill="black"/>
<path d="M50.928 32H46.576L52.464 9.6H59.824L65.712 32H61.36L60.144 27.072H52.144L50.928 32ZM55.856 12.256L53.136 23.168H59.152L56.432 12.256H55.856ZM67.7533 24.128V23.616C67.7533 18.624 71.0493 15.68 74.9853 15.68C77.8653 15.68 79.2093 16.96 79.9133 18.048H80.4893V16.128H84.4573V34.816C84.4573 36.992 83.0493 38.4 80.9373 38.4H70.3133V34.88H79.5293C80.1053 34.88 80.4253 34.56 80.4253 33.92V29.792H79.8493C79.2093 30.848 77.8973 32.064 74.9853 32.064C71.0813 32.064 67.7533 29.12 67.7533 24.128ZM76.1373 28.544C78.6013 28.544 80.4893 26.912 80.4893 24.032V23.712C80.4893 20.832 78.6333 19.2 76.1373 19.2C73.6413 19.2 71.7853 20.832 71.7853 23.712V24.032C71.7853 26.912 73.6733 28.544 76.1373 28.544ZM96.1595 32.448C91.3915 32.448 88.1595 29.248 88.1595 24.256V23.872C88.1595 18.88 91.3595 15.68 96.0955 15.68C100.768 15.68 103.808 19.008 103.808 23.872V25.248H92.2555C92.3515 27.424 94.0475 28.928 96.2875 28.928C98.5275 28.928 99.4555 27.776 99.9995 26.56L103.296 28.288C102.4 29.984 100.512 32.448 96.1595 32.448ZM92.2875 22.24H99.7115C99.5195 20.416 98.1435 19.2 96.0635 19.2C93.8875 19.2 92.5755 20.416 92.2875 22.24ZM111.428 32H107.396V16.128H111.364V18.208H111.94C112.452 17.12 113.732 15.872 116.58 15.872C120.292 15.872 122.756 18.592 122.756 22.528V32H118.724V22.848C118.724 20.448 117.508 19.264 115.332 19.264C112.868 19.264 111.428 20.992 111.428 23.936V32ZM134.763 32.448C129.579 32.448 125.963 29.568 125.963 24.704V23.808H130.123V24.704C130.123 27.392 131.883 28.736 134.763 28.736C137.643 28.736 139.083 27.456 139.083 25.664C139.083 23.808 137.451 23.168 134.571 22.528L133.835 22.368C129.195 21.344 126.475 19.776 126.475 15.68C126.475 11.584 129.579 9.152 134.379 9.152C139.179 9.152 142.667 11.584 142.667 16.448V17.408H138.507V16.448C138.507 13.888 136.939 12.864 134.379 12.864C131.819 12.864 130.635 13.888 130.635 15.552C130.635 17.216 131.883 18.016 134.571 18.592L135.307 18.752C140.075 19.776 143.243 21.44 143.243 25.536C143.243 29.632 139.947 32.448 134.763 32.448ZM150.553 32H146.521V9.6H150.553V18.08H151.129C151.641 17.056 152.889 15.872 155.705 15.872C159.417 15.872 161.881 18.592 161.881 22.528V32H157.849V22.848C157.849 20.448 156.633 19.264 154.457 19.264C151.993 19.264 150.553 20.992 150.553 23.936V32ZM171.168 32.448C167.776 32.448 165.216 30.624 165.216 27.36C165.216 24.096 167.776 22.4 171.36 22.4H175.712V21.504C175.712 20.032 174.816 18.944 172.768 18.944C170.752 18.944 169.856 19.968 169.568 21.408L165.856 20.16C166.624 17.76 168.704 15.68 172.832 15.68C176.992 15.68 179.616 17.824 179.616 21.792V27.712C179.616 28.352 179.936 28.672 180.512 28.672H181.792V32H179.104C177.536 32 176.384 31.168 176.384 29.888V29.856H175.776C175.488 30.656 174.496 32.448 171.168 32.448ZM171.872 29.184C174.112 29.184 175.712 27.84 175.712 25.728V25.408H171.648C170.144 25.408 169.248 26.08 169.248 27.232C169.248 28.384 170.144 29.184 171.872 29.184ZM188.772 32H184.74V16.128H188.708V17.92H189.284C189.732 16.64 190.884 16.064 192.356 16.064H194.276V19.648H192.292C190.244 19.648 188.772 20.736 188.772 22.976V32ZM201.46 32H197.428V9.6H201.46V21.984H202.036L207.284 16.128H212.532L205.204 23.808L212.788 32H207.604L202.036 25.696H201.46V32Z" fill="white"/>
</svg>
