<svg xmlns="http://www.w3.org/2000/svg" width="21.703" height="20" viewBox="0 0 21.703 20"><path d="M3,11.717c0-2.7,0-4.052.526-5.083A4.823,4.823,0,0,1,5.633,4.526C6.665,4,8.015,4,10.717,4h6.27c2.7,0,4.052,0,5.083.526a4.823,4.823,0,0,1,2.108,2.108c.526,1.032.526,2.382.526,5.083v1.447c0,2.7,0,4.052-.526,5.083a4.823,4.823,0,0,1-2.108,2.108c-1.032.526-2.382.526-5.083.526H8.322a1.206,1.206,0,0,0-.853.353L5.058,23.644A1.206,1.206,0,0,1,3,22.792V11.717Zm7.234-2.894a1.206,1.206,0,1,0,0,2.411h7.234a1.206,1.206,0,0,0,0-2.411Zm0,4.823a1.206,1.206,0,1,0,0,2.411h3.617a1.206,1.206,0,1,0,0-2.411Z" transform="translate(-3 -4)" fill="#fff" fill-rule="evenodd"/></svg>