<svg xmlns="http://www.w3.org/2000/svg" width="22" height="18.725" viewBox="0 0 22 18.725"><g transform="translate(-1 -2.637)"><path d="M8.287,14.835,1,10.157v9.706a1.69,1.69,0,0,0,.105.6Z" fill="#ed1f24"/><path d="M9.121,14.182,12,11.927l2.879,2.255L22.54,9.263l-9.84-6.4a1.535,1.535,0,0,0-1.6,0l-9.645,6.4Z" fill="#ed1f24"/><path d="M15.714,14.835,22.9,20.459a1.714,1.714,0,0,0,.1-.6v-9.7Z" fill="#ed1f24"/><path d="M12,13.2,1.789,21.192a1.6,1.6,0,0,0,.711.17h19a1.593,1.593,0,0,0,.71-.17Z" fill="#ed1f24"/></g></svg>